<svg xmlns="http://www.w3.org/2000/svg" xmlns:xlink="http://www.w3.org/1999/xlink" zoomAndPan="magnify" viewBox="0 0 227.25 135.000003" preserveAspectRatio="xMidYMid meet" version="1.0"><defs><g/><clipPath id="a0c37bb660"><path d="M 3 0 L 224 0 L 224 133.9375 L 3 133.9375 Z M 3 0 " clip-rule="nonzero"/></clipPath></defs><path fill="#b74153" d="M 179.324219 33.585938 L 189.0625 31.121094 C 190.566406 30.738281 191.480469 29.207031 191.097656 27.699219 C 190.71875 26.191406 189.1875 25.28125 187.675781 25.660156 L 177.941406 28.125 C 176.4375 28.503906 175.523438 30.039062 175.90625 31.546875 C 176.285156 33.054688 177.816406 33.964844 179.324219 33.585938 " fill-opacity="1" fill-rule="nonzero"/><path fill="#b74153" d="M 47.761719 49.582031 C 48.144531 51.089844 49.675781 52.003906 51.179688 51.621094 L 60.917969 49.15625 C 62.425781 48.777344 63.335938 47.246094 62.957031 45.738281 C 62.574219 44.230469 61.042969 43.316406 59.535156 43.695312 L 49.800781 46.160156 C 48.292969 46.542969 47.378906 48.074219 47.761719 49.582031 " fill-opacity="1" fill-rule="nonzero"/><path fill="#b74153" d="M 125.738281 17.667969 L 135.472656 15.203125 C 136.980469 14.824219 137.890625 13.292969 137.507812 11.78125 C 137.128906 10.277344 135.597656 9.363281 134.089844 9.742188 L 124.355469 12.207031 C 122.847656 12.589844 121.933594 14.121094 122.316406 15.628906 C 122.699219 17.136719 124.230469 18.050781 125.738281 17.667969 " fill-opacity="1" fill-rule="nonzero"/><path fill="#b74153" d="M 50.675781 42.066406 C 51.640625 43.285156 53.410156 43.496094 54.632812 42.53125 C 55.851562 41.570312 56.058594 39.796875 55.097656 38.578125 L 48.875 30.695312 C 47.914062 29.472656 46.144531 29.265625 44.921875 30.226562 C 43.703125 31.191406 43.492188 32.960938 44.457031 34.183594 L 50.675781 42.066406 " fill-opacity="1" fill-rule="nonzero"/><path fill="#b74153" d="M 83.160156 19.078125 C 83.761719 19.835938 84.863281 19.964844 85.617188 19.367188 C 86.378906 18.769531 86.507812 17.667969 85.910156 16.910156 L 82.042969 12.007812 C 81.445312 11.253906 80.347656 11.121094 79.585938 11.722656 C 78.828125 12.320312 78.699219 13.421875 79.296875 14.179688 L 83.160156 19.078125 " fill-opacity="1" fill-rule="nonzero"/><g clip-path="url(#a0c37bb660)"><path fill="#b74153" d="M 211.773438 78.914062 C 209.117188 87.472656 202.613281 99.726562 186.753906 109.507812 C 169.996094 119.839844 146.730469 125.078125 117.601562 125.078125 L 108.949219 125.078125 C 79.820312 125.078125 56.550781 119.839844 39.796875 109.507812 C 23.9375 99.726562 17.4375 87.472656 14.773438 78.914062 C 11.570312 68.617188 11.195312 59.523438 13.617188 51.785156 C 16.519531 54.714844 16.441406 56.304688 16.320312 58.691406 L 16.304688 59 C 16.296875 59.234375 16.269531 59.492188 16.242188 59.769531 C 15.960938 62.71875 15.375 68.859375 27.039062 70.765625 C 33.125 71.761719 36.925781 73.449219 40.28125 74.933594 C 43.089844 76.179688 45.746094 77.355469 49.234375 77.960938 C 51.972656 78.4375 55.484375 78.242188 59.554688 78.019531 C 66.859375 77.613281 75.144531 77.15625 80.625 80.601562 C 92.003906 87.753906 102.535156 91.382812 111.921875 91.382812 L 113.433594 91.382812 C 122.820312 91.382812 133.351562 87.753906 144.730469 80.601562 C 150.210938 77.15625 158.496094 77.613281 165.800781 78.019531 C 169.871094 78.242188 173.382812 78.4375 176.125 77.960938 C 179.609375 77.355469 182.265625 76.179688 185.074219 74.933594 C 188.429688 73.449219 192.234375 71.761719 198.320312 70.765625 C 209.980469 68.859375 209.394531 62.71875 209.113281 59.769531 C 209.085938 59.492188 209.058594 59.234375 209.050781 59 L 209.035156 58.691406 C 208.910156 56.273438 208.832031 54.671875 211.855469 51.664062 C 212.136719 51.382812 212.382812 51.097656 212.609375 50.8125 C 215.378906 58.761719 215.113281 68.183594 211.773438 78.914062 Z M 16.238281 45.695312 C 16.4375 45.3125 16.585938 45.074219 16.800781 44.746094 C 17.746094 43.269531 18.484375 41.933594 20.046875 37.023438 C 20.4375 35.792969 22.007812 34.105469 24.148438 32.335938 C 24.410156 33.179688 25.1875 33.789062 26.113281 33.78125 L 33.414062 33.71875 C 34.546875 33.707031 35.457031 32.78125 35.445312 31.652344 C 35.4375 30.523438 34.511719 29.613281 33.382812 29.621094 L 27.714844 29.671875 C 29.726562 28.300781 31.902344 26.992188 33.957031 25.929688 L 34.21875 25.78125 C 34.835938 25.410156 35.460938 25.050781 36.082031 24.695312 C 36.050781 26.074219 37.039062 27.304688 38.441406 27.535156 L 48.347656 29.167969 C 49.882812 29.421875 51.332031 28.382812 51.582031 26.847656 C 51.835938 25.3125 50.796875 23.867188 49.261719 23.609375 L 40.757812 22.210938 C 44.835938 20.191406 49.035156 18.472656 53.242188 17.019531 C 53.28125 17.164062 53.332031 17.308594 53.410156 17.445312 C 53.898438 18.308594 54.992188 18.609375 55.855469 18.125 L 61.425781 14.984375 C 61.710938 14.820312 61.933594 14.585938 62.089844 14.316406 C 64.75 13.605469 67.382812 12.984375 69.957031 12.445312 C 69.476562 13.183594 69.589844 14.175781 70.269531 14.773438 L 75.078125 19.011719 C 75.824219 19.667969 76.960938 19.597656 77.613281 18.851562 C 78.273438 18.105469 78.199219 16.972656 77.457031 16.316406 L 72.644531 12.074219 C 72.589844 12.027344 72.527344 11.988281 72.464844 11.945312 C 86.472656 9.253906 98.480469 8.910156 103.664062 8.910156 C 105.859375 8.910156 107.117188 8.96875 107.128906 8.96875 L 110.253906 8.96875 L 105.53125 11.636719 C 104.667969 12.125 104.363281 13.214844 104.847656 14.078125 C 105.335938 14.941406 106.429688 15.246094 107.292969 14.761719 L 112.863281 11.617188 C 113.726562 11.132812 114.03125 10.039062 113.542969 9.175781 C 113.503906 9.101562 113.449219 9.035156 113.402344 8.96875 L 119.207031 8.972656 L 119.417969 8.96875 C 119.429688 8.96875 120.691406 8.910156 122.890625 8.910156 C 127.433594 8.910156 137.230469 9.175781 149.023438 11.054688 C 148.992188 11.289062 149.007812 11.53125 149.085938 11.769531 L 150.898438 17.195312 C 151.175781 18.035156 152.085938 18.492188 152.925781 18.210938 C 153.765625 17.929688 154.21875 17.019531 153.941406 16.183594 L 152.421875 11.636719 C 160.417969 13.082031 169.144531 15.285156 177.675781 18.628906 L 170.699219 24.53125 C 169.507812 25.535156 169.359375 27.3125 170.363281 28.5 C 171.367188 29.683594 173.144531 29.835938 174.332031 28.832031 L 182.003906 22.347656 C 182.480469 21.941406 182.78125 21.410156 182.914062 20.84375 C 186.125 22.304688 189.28125 23.941406 192.328125 25.78125 L 192.59375 25.929688 C 197.796875 28.609375 205.527344 33.953125 206.503906 37.023438 C 208.066406 41.933594 208.804688 43.269531 209.753906 44.746094 C 209.960938 45.074219 210.117188 45.3125 210.3125 45.695312 C 210.386719 45.84375 210.484375 46.027344 210.605469 46.246094 C 210.757812 46.527344 210.890625 46.8125 211.03125 47.097656 C 210.867188 47.820312 210.464844 48.621094 209.644531 49.441406 C 205.628906 53.4375 205.769531 56.191406 205.902344 58.851562 L 205.917969 59.148438 C 205.929688 59.429688 205.960938 59.734375 205.992188 60.066406 C 206.253906 62.816406 206.578125 66.238281 197.808594 67.675781 C 191.328125 68.734375 187.332031 70.507812 183.804688 72.066406 C 181.0625 73.28125 178.691406 74.332031 175.585938 74.871094 C 173.199219 75.285156 169.691406 75.089844 165.976562 74.886719 C 158.199219 74.457031 149.386719 73.96875 143.0625 77.945312 C 132.191406 84.78125 122.222656 88.246094 113.433594 88.246094 L 111.921875 88.246094 C 103.132812 88.246094 93.164062 84.78125 82.296875 77.945312 C 75.96875 73.96875 67.15625 74.457031 59.382812 74.886719 C 55.664062 75.09375 52.15625 75.285156 49.769531 74.871094 C 46.664062 74.332031 44.292969 73.28125 41.550781 72.066406 C 38.023438 70.507812 34.027344 68.734375 27.546875 67.675781 C 18.773438 66.238281 19.101562 62.816406 19.367188 60.066406 C 19.394531 59.734375 19.425781 59.429688 19.4375 59.148438 L 19.453125 58.851562 C 19.585938 56.191406 19.726562 53.4375 15.710938 49.441406 C 15.367188 49.097656 15.097656 48.753906 14.890625 48.421875 C 15.214844 47.683594 15.558594 46.957031 15.945312 46.246094 C 16.066406 46.027344 16.164062 45.84375 16.238281 45.695312 Z M 218.222656 41.652344 C 217.824219 40.878906 217.492188 40.363281 217.226562 39.945312 C 216.746094 39.199219 216.292969 38.492188 214.96875 34.328125 C 212.519531 26.632812 199.703125 19.609375 196.792969 18.101562 C 169.667969 1.789062 136.082031 0.0234375 122.890625 0.0234375 C 120.820312 0.0234375 119.5 0.0742188 119.109375 0.0898438 L 107.4375 0.0898438 C 107.050781 0.0742188 105.730469 0.0234375 103.664062 0.0234375 C 90.46875 0.0234375 56.882812 1.789062 29.757812 18.101562 C 26.847656 19.609375 14.027344 26.632812 11.582031 34.328125 C 10.257812 38.492188 9.804688 39.199219 9.324219 39.945312 C 9.054688 40.363281 8.722656 40.878906 8.328125 41.652344 C 8.277344 41.75 8.214844 41.871094 8.136719 42.011719 C 0.707031 55.714844 3.03125 71.074219 6.289062 81.550781 C 9.402344 91.558594 16.933594 105.84375 35.132812 117.070312 C 53.3125 128.28125 78.148438 133.960938 108.949219 133.960938 L 117.601562 133.960938 C 148.402344 133.960938 173.238281 128.28125 191.417969 117.070312 C 209.617188 105.84375 217.144531 91.558594 220.257812 81.550781 C 223.515625 71.074219 225.84375 55.714844 218.414062 42.011719 C 218.335938 41.871094 218.269531 41.75 218.222656 41.652344 " fill-opacity="1" fill-rule="nonzero"/></g><path fill="#b74153" d="M 113.925781 29.628906 C 133.949219 29.628906 145.183594 33.859375 147.519531 36.074219 C 145.183594 38.289062 133.949219 42.519531 113.925781 42.519531 C 93.894531 42.519531 82.664062 38.289062 80.328125 36.074219 C 82.664062 33.859375 93.894531 29.628906 113.925781 29.628906 Z M 95.726562 50.109375 C 95.199219 51.074219 95.265625 52.296875 95.988281 53.210938 L 102.207031 61.089844 C 103.171875 62.3125 104.941406 62.523438 106.164062 61.558594 C 107.382812 60.59375 107.589844 58.824219 106.628906 57.601562 L 101.246094 50.78125 C 105.753906 51.222656 110.148438 51.40625 113.925781 51.40625 C 129.804688 51.40625 156.679688 48.175781 156.679688 36.074219 C 156.679688 23.976562 129.804688 20.746094 113.925781 20.746094 C 98.042969 20.746094 71.167969 23.976562 71.167969 36.074219 C 71.167969 44.132812 83.078125 48.253906 95.726562 50.109375 " fill-opacity="1" fill-rule="nonzero"/><path fill="#b74153" d="M 91.976562 13.707031 L 99.277344 13.644531 C 100.410156 13.632812 101.316406 12.707031 101.308594 11.578125 C 101.296875 10.445312 100.375 9.539062 99.242188 9.546875 L 91.9375 9.609375 C 90.808594 9.621094 89.898438 10.546875 89.910156 11.675781 C 89.917969 12.808594 90.84375 13.714844 91.976562 13.707031 " fill-opacity="1" fill-rule="nonzero"/><path fill="#b74153" d="M 84.351562 62.441406 L 77.046875 62.503906 C 75.917969 62.515625 75.007812 63.4375 75.019531 64.570312 C 75.027344 65.699219 75.953125 66.609375 77.085938 66.597656 L 84.386719 66.535156 C 85.515625 66.527344 86.425781 65.601562 86.414062 64.472656 C 86.40625 63.339844 85.480469 62.429688 84.351562 62.441406 " fill-opacity="1" fill-rule="nonzero"/><path fill="#b74153" d="M 158.457031 24.019531 L 165.757812 23.957031 C 166.890625 23.949219 167.796875 23.023438 167.789062 21.890625 C 167.777344 20.761719 166.855469 19.851562 165.722656 19.863281 L 158.421875 19.925781 C 157.289062 19.9375 156.382812 20.859375 156.390625 21.992188 C 156.398438 23.121094 157.324219 24.03125 158.457031 24.019531 " fill-opacity="1" fill-rule="nonzero"/><path fill="#b74153" d="M 129.960938 56.515625 C 129.949219 55.382812 129.027344 54.476562 127.894531 54.484375 L 120.59375 54.550781 C 119.460938 54.558594 118.550781 55.484375 118.5625 56.613281 C 118.570312 57.746094 119.496094 58.652344 120.628906 58.644531 L 127.929688 58.582031 C 129.058594 58.570312 129.972656 57.644531 129.960938 56.515625 " fill-opacity="1" fill-rule="nonzero"/><path fill="#b74153" d="M 154.324219 62.441406 L 147.023438 62.503906 C 145.890625 62.515625 144.984375 63.4375 144.992188 64.570312 C 145 65.699219 145.925781 66.609375 147.058594 66.597656 L 154.359375 66.535156 C 155.492188 66.527344 156.398438 65.601562 156.390625 64.472656 C 156.382812 63.339844 155.453125 62.429688 154.324219 62.441406 " fill-opacity="1" fill-rule="nonzero"/><path fill="#b74153" d="M 184.902344 40.886719 C 183.558594 41.667969 183.101562 43.390625 183.882812 44.734375 L 188.933594 53.414062 C 189.714844 54.761719 191.4375 55.214844 192.78125 54.433594 C 194.128906 53.652344 194.582031 51.929688 193.800781 50.585938 L 188.753906 41.90625 C 187.972656 40.558594 186.246094 40.105469 184.902344 40.886719 " fill-opacity="1" fill-rule="nonzero"/><path fill="#b74153" d="M 135.542969 17.054688 C 135.910156 17.703125 136.730469 17.929688 137.378906 17.566406 L 141.5625 15.207031 C 142.210938 14.839844 142.4375 14.019531 142.074219 13.371094 C 141.707031 12.722656 140.886719 12.496094 140.238281 12.859375 L 136.054688 15.21875 C 135.40625 15.585938 135.179688 16.40625 135.542969 17.054688 " fill-opacity="1" fill-rule="nonzero"/><path fill="#b74153" d="M 31.734375 59.015625 C 32.21875 59.878906 33.3125 60.183594 34.175781 59.695312 L 39.746094 56.554688 C 40.609375 56.070312 40.914062 54.972656 40.429688 54.113281 C 39.941406 53.25 38.847656 52.945312 37.984375 53.429688 L 32.414062 56.574219 C 31.550781 57.058594 31.246094 58.152344 31.734375 59.015625 " fill-opacity="1" fill-rule="nonzero"/><path fill="#b74153" d="M 59.375 37.730469 C 58.515625 38.214844 58.207031 39.308594 58.695312 40.175781 C 59.179688 41.039062 60.277344 41.339844 61.140625 40.855469 L 66.710938 37.710938 C 67.570312 37.226562 67.878906 36.132812 67.390625 35.269531 C 66.902344 34.40625 65.808594 34.101562 64.945312 34.585938 L 59.375 37.730469 " fill-opacity="1" fill-rule="nonzero"/><path fill="#b74153" d="M 58.875 28.441406 L 64.449219 25.296875 C 65.308594 24.8125 65.617188 23.714844 65.128906 22.851562 C 64.640625 21.992188 63.546875 21.6875 62.683594 22.171875 L 57.113281 25.316406 C 56.25 25.804688 55.945312 26.898438 56.433594 27.761719 C 56.917969 28.621094 58.015625 28.925781 58.875 28.441406 " fill-opacity="1" fill-rule="nonzero"/><path fill="#b74153" d="M 130.746094 59.308594 L 125.171875 62.449219 C 124.308594 62.9375 124.007812 64.03125 124.492188 64.890625 C 124.980469 65.753906 126.074219 66.0625 126.9375 65.574219 L 132.507812 62.429688 C 133.371094 61.945312 133.675781 60.851562 133.1875 59.988281 C 132.699219 59.125 131.609375 58.820312 130.746094 59.308594 " fill-opacity="1" fill-rule="nonzero"/><path fill="#b74153" d="M 163.9375 62.355469 C 164.296875 63.867188 165.816406 64.800781 167.328125 64.441406 L 177.097656 62.121094 C 178.613281 61.761719 179.546875 60.242188 179.1875 58.730469 C 178.828125 57.21875 177.308594 56.28125 175.796875 56.640625 L 166.027344 58.964844 C 164.515625 59.324219 163.578125 60.84375 163.9375 62.355469 " fill-opacity="1" fill-rule="nonzero"/><path fill="#b74153" d="M 115.253906 65.484375 C 113.726562 65.191406 112.253906 66.191406 111.957031 67.71875 L 110.0625 77.578125 C 109.769531 79.105469 110.769531 80.582031 112.296875 80.875 C 113.820312 81.171875 115.296875 80.167969 115.589844 78.644531 L 117.488281 68.78125 C 117.78125 67.257812 116.785156 65.777344 115.253906 65.484375 " fill-opacity="1" fill-rule="nonzero"/><path fill="#b74153" d="M 64.847656 53.84375 C 63.519531 53.035156 61.785156 53.460938 60.980469 54.789062 L 55.765625 63.371094 C 54.960938 64.699219 55.382812 66.433594 56.714844 67.238281 C 58.042969 68.046875 59.773438 67.625 60.582031 66.292969 L 65.792969 57.710938 C 66.601562 56.382812 66.175781 54.652344 64.847656 53.84375 " fill-opacity="1" fill-rule="nonzero"/><path fill="#b74153" d="M 28.023438 54.640625 C 28.710938 55.058594 29.605469 54.839844 30.023438 54.152344 L 32.714844 49.71875 C 33.132812 49.035156 32.914062 48.140625 32.226562 47.722656 C 31.539062 47.304688 30.644531 47.523438 30.230469 48.210938 L 27.535156 52.640625 C 27.121094 53.332031 27.339844 54.222656 28.023438 54.640625 " fill-opacity="1" fill-rule="nonzero"/><path fill="#b74153" d="M 166.347656 42.800781 L 163.171875 33.277344 C 162.679688 31.800781 161.085938 31.003906 159.609375 31.496094 C 158.136719 31.988281 157.335938 33.582031 157.828125 35.058594 L 161.007812 44.582031 C 161.5 46.058594 163.09375 46.855469 164.570312 46.363281 C 166.042969 45.871094 166.839844 44.277344 166.347656 42.800781 " fill-opacity="1" fill-rule="nonzero"/><path fill="#b74153" d="M 199.601562 42.398438 C 200.347656 43.054688 201.480469 42.984375 202.136719 42.238281 C 202.796875 41.496094 202.722656 40.359375 201.980469 39.699219 L 197.167969 35.460938 C 196.425781 34.804688 195.289062 34.875 194.632812 35.621094 C 193.976562 36.367188 194.046875 37.5 194.792969 38.160156 L 199.601562 42.398438 " fill-opacity="1" fill-rule="nonzero"/><path fill="#b74153" d="M 155.265625 54.796875 C 155.921875 54.054688 155.851562 52.917969 155.105469 52.261719 L 150.296875 48.019531 C 149.550781 47.367188 148.417969 47.433594 147.757812 48.179688 C 147.105469 48.925781 147.175781 50.0625 147.917969 50.71875 L 152.726562 54.957031 C 153.472656 55.613281 154.609375 55.542969 155.265625 54.796875 " fill-opacity="1" fill-rule="nonzero"/><path fill="#b74153" d="M 24.226562 47.078125 C 24.972656 47.734375 26.109375 47.664062 26.761719 46.917969 C 27.421875 46.175781 27.347656 45.039062 26.605469 44.382812 L 21.792969 40.144531 C 21.050781 39.484375 19.914062 39.558594 19.257812 40.300781 C 18.601562 41.046875 18.671875 42.183594 19.417969 42.839844 L 24.226562 47.078125 " fill-opacity="1" fill-rule="nonzero"/><path fill="#b74153" d="M 40.863281 42.398438 C 41.609375 43.054688 42.746094 42.984375 43.402344 42.238281 C 44.058594 41.492188 43.984375 40.359375 43.242188 39.699219 L 38.433594 35.460938 C 37.6875 34.804688 36.550781 34.875 35.894531 35.621094 C 35.238281 36.367188 35.308594 37.5 36.054688 38.160156 L 40.863281 42.398438 " fill-opacity="1" fill-rule="nonzero"/><path fill="#b74153" d="M 95.890625 69.710938 C 95.144531 69.058594 94.007812 69.125 93.351562 69.871094 C 92.695312 70.617188 92.765625 71.753906 93.511719 72.410156 L 98.320312 76.648438 C 99.066406 77.304688 100.203125 77.234375 100.855469 76.488281 C 101.515625 75.742188 101.441406 74.605469 100.699219 73.953125 L 95.890625 69.710938 " fill-opacity="1" fill-rule="nonzero"/><path fill="#b74153" d="M 70.882812 50.820312 L 80.792969 52.453125 C 82.324219 52.703125 83.773438 51.664062 84.027344 50.128906 C 84.28125 48.597656 83.242188 47.148438 81.707031 46.894531 L 71.796875 45.261719 C 70.265625 45.007812 68.816406 46.046875 68.5625 47.582031 C 68.308594 49.117188 69.347656 50.566406 70.882812 50.820312 " fill-opacity="1" fill-rule="nonzero"/><g fill="#b74153" fill-opacity="1"><g transform="translate(21.267646, 91.14828)"><g><path d="M 4.875 3.75 C 5.457031 4.175781 6.070312 4.335938 6.71875 4.234375 C 7.363281 4.128906 7.945312 3.75 8.46875 3.09375 L 10.34375 0.5625 L 12.015625 -1.78125 C 12.585938 -2.5625 12.96875 -3.046875 13.15625 -3.234375 C 13.257812 -3.367188 13.363281 -3.429688 13.46875 -3.421875 C 13.582031 -3.410156 13.660156 -3.390625 13.703125 -3.359375 C 14.015625 -3.140625 14.363281 -2.910156 14.75 -2.671875 C 15.132812 -2.441406 15.519531 -2.300781 15.90625 -2.25 C 16.789062 -2.164062 17.578125 -2.59375 18.265625 -3.53125 C 18.648438 -4.0625 18.800781 -4.566406 18.71875 -5.046875 C 18.644531 -5.535156 18.46875 -5.953125 18.1875 -6.296875 C 17.90625 -6.648438 17.660156 -6.90625 17.453125 -7.0625 L 11.9375 -11.0625 C 11.375 -11.476562 10.753906 -11.753906 10.078125 -11.890625 C 9.046875 -12.117188 8.21875 -11.800781 7.59375 -10.9375 C 7.257812 -10.476562 7.113281 -9.972656 7.15625 -9.421875 C 7.207031 -8.878906 7.347656 -8.429688 7.578125 -8.078125 C 7.703125 -7.910156 7.847656 -7.742188 8.015625 -7.578125 C 8.179688 -7.410156 8.460938 -7.179688 8.859375 -6.890625 C 8.960938 -6.804688 9.054688 -6.707031 9.140625 -6.59375 C 9.234375 -6.488281 9.238281 -6.367188 9.15625 -6.234375 C 8.1875 -4.742188 6.796875 -2.75 4.984375 -0.25 L 4.46875 0.453125 C 4.46875 0.460938 4.410156 0.582031 4.296875 0.8125 C 4.191406 1.050781 4.109375 1.34375 4.046875 1.6875 C 3.992188 2.03125 4.019531 2.390625 4.125 2.765625 C 4.226562 3.140625 4.476562 3.46875 4.875 3.75 Z M 4.875 3.75 "/></g></g></g><g fill="#b74153" fill-opacity="1"><g transform="translate(32.127024, 99.013484)"><g><path d="M 2.390625 1.78125 C 2.941406 2.113281 3.546875 2.273438 4.203125 2.265625 C 4.859375 2.265625 5.40625 1.960938 5.84375 1.359375 C 6.175781 0.816406 6.453125 0.363281 6.671875 0 C 6.898438 -0.375 7.078125 -0.644531 7.203125 -0.8125 C 7.335938 -0.988281 7.445312 -1.050781 7.53125 -1 L 8.140625 -0.65625 C 8.234375 -0.59375 8.289062 -0.546875 8.3125 -0.515625 C 8.332031 -0.484375 8.332031 -0.445312 8.3125 -0.40625 L 7.96875 0.171875 C 7.382812 1.140625 6.988281 1.863281 6.78125 2.34375 C 6.570312 2.894531 6.585938 3.414062 6.828125 3.90625 C 7.078125 4.394531 7.4375 4.78125 7.90625 5.0625 C 8.25 5.257812 8.625 5.390625 9.03125 5.453125 C 9.945312 5.554688 10.648438 5.195312 11.140625 4.375 C 12.253906 2.507812 13.175781 0.988281 13.90625 -0.1875 C 14.519531 -1.1875 15.421875 -2.691406 16.609375 -4.703125 C 17.035156 -5.410156 17.253906 -6.03125 17.265625 -6.5625 C 17.285156 -7.507812 16.875 -8.234375 16.03125 -8.734375 C 15.695312 -8.929688 15.367188 -9.0625 15.046875 -9.125 C 14.734375 -9.1875 14.488281 -9.195312 14.3125 -9.15625 C 13.882812 -8.976562 13.5 -8.675781 13.15625 -8.25 C 12.820312 -7.820312 12.53125 -7.398438 12.28125 -6.984375 L 10.984375 -4.71875 C 10.585938 -4.039062 10.328125 -3.738281 10.203125 -3.8125 L 9.671875 -4.109375 C 9.515625 -4.191406 9.429688 -4.257812 9.421875 -4.3125 C 9.410156 -4.375 9.441406 -4.46875 9.515625 -4.59375 L 11.25 -7.4375 L 11.84375 -8.5 C 12.144531 -8.988281 12.257812 -9.460938 12.1875 -9.921875 C 12.113281 -10.390625 11.925781 -10.804688 11.625 -11.171875 C 11.320312 -11.546875 10.984375 -11.84375 10.609375 -12.0625 C 10.066406 -12.382812 9.488281 -12.414062 8.875 -12.15625 C 8.257812 -11.894531 7.703125 -11.375 7.203125 -10.59375 L 3.46875 -4.46875 C 3.070312 -3.78125 2.582031 -2.945312 2 -1.96875 C 1.664062 -1.414062 1.429688 -0.960938 1.296875 -0.609375 C 1.171875 -0.253906 1.148438 0.101562 1.234375 0.46875 C 1.421875 1 1.804688 1.4375 2.390625 1.78125 Z M 2.390625 1.78125 "/></g></g></g><g fill="#b74153" fill-opacity="1"><g transform="translate(43.704731, 105.84463)"><g><path d="M 3.59375 2.234375 C 4.09375 2.472656 4.691406 2.742188 5.390625 3.046875 C 5.898438 3.285156 6.453125 3.546875 7.046875 3.828125 C 7.640625 4.117188 8.242188 4.1875 8.859375 4.03125 C 9.484375 3.882812 9.953125 3.488281 10.265625 2.84375 C 10.578125 2.195312 10.671875 1.578125 10.546875 0.984375 C 10.421875 0.398438 10.117188 -0.0546875 9.640625 -0.390625 C 8.578125 -0.910156 7.738281 -1.316406 7.125 -1.609375 C 7.050781 -1.660156 7.019531 -1.726562 7.03125 -1.8125 C 7.050781 -1.894531 7.09375 -2 7.15625 -2.125 C 7.21875 -2.238281 7.269531 -2.3125 7.3125 -2.34375 C 7.351562 -2.382812 7.429688 -2.382812 7.546875 -2.34375 C 7.660156 -2.300781 7.835938 -2.222656 8.078125 -2.109375 L 8.921875 -1.765625 C 9.078125 -1.691406 9.289062 -1.585938 9.5625 -1.453125 C 9.84375 -1.316406 10.140625 -1.222656 10.453125 -1.171875 C 11.179688 -1.046875 11.820312 -1.550781 12.375 -2.6875 C 12.613281 -3.175781 12.691406 -3.59375 12.609375 -3.9375 C 12.484375 -4.457031 12.0625 -4.894531 11.34375 -5.25 C 10.570312 -5.625 10.066406 -5.878906 9.828125 -6.015625 C 9.585938 -6.148438 9.457031 -6.253906 9.4375 -6.328125 C 9.425781 -6.410156 9.445312 -6.515625 9.5 -6.640625 L 9.546875 -6.703125 L 9.65625 -7 C 9.695312 -7.082031 9.773438 -7.109375 9.890625 -7.078125 C 10.117188 -6.960938 10.472656 -6.8125 10.953125 -6.625 C 11.578125 -6.375 12.117188 -6.140625 12.578125 -5.921875 C 13.097656 -5.660156 13.554688 -5.601562 13.953125 -5.75 C 14.546875 -5.988281 15.007812 -6.441406 15.34375 -7.109375 C 15.644531 -7.734375 15.742188 -8.285156 15.640625 -8.765625 C 15.441406 -9.648438 14.78125 -10.363281 13.65625 -10.90625 L 9.421875 -12.96875 C 8.253906 -13.4375 7.398438 -13.273438 6.859375 -12.484375 C 6.765625 -12.304688 6.472656 -11.71875 5.984375 -10.71875 C 5.722656 -10.1875 5.453125 -9.632812 5.171875 -9.0625 C 4.898438 -8.488281 4.671875 -8.007812 4.484375 -7.625 C 4.304688 -7.238281 4.226562 -7.039062 4.25 -7.03125 L 2.46875 -3.453125 C 1.882812 -2.242188 1.515625 -1.3125 1.359375 -0.65625 C 1.210938 -0.0078125 1.3125 0.515625 1.65625 0.921875 C 2.007812 1.335938 2.65625 1.773438 3.59375 2.234375 Z M 3.59375 2.234375 "/></g></g></g><g fill="#b74153" fill-opacity="1"><g transform="translate(54.110057, 110.827574)"><g/></g></g><g fill="#b74153" fill-opacity="1"><g transform="translate(61.786896, 113.99714)"><g><path d="M 2.515625 1.203125 C 5.328125 2.117188 7.6875 1.96875 9.59375 0.75 C 11.238281 -0.289062 12.421875 -1.894531 13.140625 -4.0625 C 13.546875 -5.289062 13.6875 -6.550781 13.5625 -7.84375 C 13.4375 -9.144531 12.941406 -10.335938 12.078125 -11.421875 C 11.222656 -12.515625 9.898438 -13.363281 8.109375 -13.96875 C 7.460938 -14.175781 6.796875 -14.09375 6.109375 -13.71875 C 5.421875 -13.351562 4.921875 -12.789062 4.609375 -12.03125 C 4.273438 -11.125 3.738281 -9.535156 3 -7.265625 L 2.21875 -4.828125 C 1.6875 -3.210938 1.394531 -2.304688 1.34375 -2.109375 C 1.269531 -1.722656 1.25 -1.296875 1.28125 -0.828125 C 1.320312 -0.367188 1.441406 0.0507812 1.640625 0.4375 C 1.847656 0.820312 2.140625 1.078125 2.515625 1.203125 Z M 6.9375 -4.078125 C 6.894531 -4.085938 6.875 -4.097656 6.875 -4.109375 C 6.9375 -4.253906 7.300781 -5.351562 7.96875 -7.40625 C 8.007812 -7.4375 8.046875 -7.445312 8.078125 -7.4375 C 8.171875 -7.414062 8.269531 -7.320312 8.375 -7.15625 C 8.488281 -6.988281 8.566406 -6.757812 8.609375 -6.46875 C 8.660156 -6.175781 8.613281 -5.8125 8.46875 -5.375 C 8.34375 -4.96875 8.171875 -4.664062 7.953125 -4.46875 C 7.734375 -4.28125 7.523438 -4.160156 7.328125 -4.109375 C 7.128906 -4.066406 7 -4.054688 6.9375 -4.078125 Z M 6.9375 -4.078125 "/></g></g></g><g fill="#b74153" fill-opacity="1"><g transform="translate(73.430351, 117.791171)"><g><path d="M 5.609375 1.734375 C 4.566406 1.484375 3.695312 0.90625 3 0 C 2.3125 -0.894531 1.847656 -2 1.609375 -3.3125 C 1.378906 -4.625 1.4375 -6.003906 1.78125 -7.453125 C 2.113281 -8.890625 2.675781 -10.140625 3.46875 -11.203125 C 4.269531 -12.273438 5.179688 -13.0625 6.203125 -13.5625 C 7.234375 -14.070312 8.269531 -14.203125 9.3125 -13.953125 C 10.34375 -13.703125 11.207031 -13.125 11.90625 -12.21875 C 12.601562 -11.3125 13.0625 -10.203125 13.28125 -8.890625 C 13.507812 -7.578125 13.457031 -6.203125 13.125 -4.765625 C 12.78125 -3.316406 12.210938 -2.054688 11.421875 -0.984375 C 10.640625 0.078125 9.734375 0.859375 8.703125 1.359375 C 7.671875 1.859375 6.640625 1.984375 5.609375 1.734375 Z M 7.109375 -4.453125 C 7.296875 -4.410156 7.488281 -4.519531 7.6875 -4.78125 C 7.882812 -5.050781 8.035156 -5.40625 8.140625 -5.84375 C 8.242188 -6.257812 8.265625 -6.632812 8.203125 -6.96875 C 8.140625 -7.300781 8.015625 -7.488281 7.828125 -7.53125 C 7.648438 -7.570312 7.457031 -7.457031 7.25 -7.1875 C 7.050781 -6.914062 6.898438 -6.570312 6.796875 -6.15625 C 6.691406 -5.71875 6.671875 -5.332031 6.734375 -5 C 6.804688 -4.675781 6.929688 -4.492188 7.109375 -4.453125 Z M 7.109375 -4.453125 "/></g></g></g><g fill="#b74153" fill-opacity="1"><g transform="translate(85.856251, 120.780706)"><g><path d="M 11.984375 2.046875 C 12.691406 2.148438 13.242188 2.019531 13.640625 1.65625 C 14.046875 1.300781 14.367188 0.664062 14.609375 -0.25 C 14.859375 -1.175781 15.085938 -2.445312 15.296875 -4.0625 C 15.597656 -6.25 15.789062 -7.722656 15.875 -8.484375 L 16.28125 -11.375 C 16.351562 -11.90625 16.175781 -12.441406 15.75 -12.984375 C 15.332031 -13.535156 14.769531 -13.859375 14.0625 -13.953125 C 12.8125 -14.117188 11.914062 -13.585938 11.375 -12.359375 C 11.070312 -11.671875 10.773438 -10.363281 10.484375 -8.4375 C 10.441406 -8.09375 10.316406 -7.921875 10.109375 -7.921875 C 10.015625 -7.929688 9.914062 -8.03125 9.8125 -8.21875 L 9.375 -8.984375 C 7.695312 -12.210938 6.625 -14.078125 6.15625 -14.578125 C 5.78125 -14.921875 5.335938 -15.125 4.828125 -15.1875 C 4.515625 -15.226562 4.195312 -15.1875 3.875 -15.0625 C 3.550781 -14.945312 3.269531 -14.710938 3.03125 -14.359375 C 2.789062 -14.015625 2.617188 -13.519531 2.515625 -12.875 C 2.503906 -12.875 2.429688 -12.398438 2.296875 -11.453125 C 2.171875 -10.515625 2.015625 -9.40625 1.828125 -8.125 C 1.648438 -6.851562 1.492188 -5.71875 1.359375 -4.71875 C 1.171875 -3.289062 1.085938 -2.578125 1.109375 -2.578125 C 1.054688 -2.210938 1.050781 -1.769531 1.09375 -1.25 C 1.207031 -0.0078125 1.898438 0.695312 3.171875 0.875 C 3.972656 0.976562 4.601562 0.804688 5.0625 0.359375 C 5.53125 -0.0859375 5.804688 -0.628906 5.890625 -1.265625 C 5.960938 -1.816406 6.113281 -2.644531 6.34375 -3.75 L 6.359375 -3.84375 C 6.359375 -3.90625 6.382812 -3.976562 6.4375 -4.0625 C 6.5 -4.15625 6.566406 -4.195312 6.640625 -4.1875 C 6.691406 -4.175781 6.734375 -4.144531 6.765625 -4.09375 C 7.179688 -3.507812 7.554688 -2.878906 7.890625 -2.203125 L 8.375 -1.328125 C 8.695312 -0.703125 9.164062 -0.03125 9.78125 0.6875 C 10.40625 1.40625 11.140625 1.859375 11.984375 2.046875 Z M 11.984375 2.046875 "/></g></g></g><g fill="#b74153" fill-opacity="1"><g transform="translate(102.084377, 122.852303)"><g><path d="M 6.328125 0.578125 C 7.523438 0.609375 8.5625 0.316406 9.4375 -0.296875 C 10.3125 -0.921875 10.992188 -1.703125 11.484375 -2.640625 C 11.984375 -3.578125 12.25 -4.515625 12.28125 -5.453125 C 12.414062 -6.828125 12.5 -8.039062 12.53125 -9.09375 C 12.550781 -9.894531 12.5625 -10.601562 12.5625 -11.21875 L 12.578125 -12.5 C 12.597656 -13.132812 12.46875 -13.660156 12.1875 -14.078125 C 11.90625 -14.503906 11.566406 -14.820312 11.171875 -15.03125 C 10.785156 -15.25 10.425781 -15.363281 10.09375 -15.375 C 9.476562 -15.394531 8.925781 -15.132812 8.4375 -14.59375 C 7.945312 -14.0625 7.671875 -13.441406 7.609375 -12.734375 C 7.523438 -11.335938 7.460938 -10.019531 7.421875 -8.78125 C 7.378906 -7.476562 7.320312 -6.601562 7.25 -6.15625 C 7.1875 -5.707031 7.007812 -5.488281 6.71875 -5.5 C 6.425781 -5.507812 6.25 -5.71875 6.1875 -6.125 C 6.132812 -6.539062 6.117188 -7.046875 6.140625 -7.640625 L 6.171875 -8.953125 L 6.1875 -9.9375 L 6.25 -11.234375 C 6.269531 -12.046875 6.210938 -12.757812 6.078125 -13.375 C 6.023438 -13.53125 5.929688 -13.738281 5.796875 -14 C 5.316406 -14.988281 4.65625 -15.492188 3.8125 -15.515625 C 2.644531 -15.554688 1.835938 -15.113281 1.390625 -14.1875 C 1.035156 -13.425781 0.828125 -11.941406 0.765625 -9.734375 C 0.722656 -8.535156 0.726562 -7.289062 0.78125 -6 C 0.789062 -5.34375 0.898438 -4.640625 1.109375 -3.890625 C 1.316406 -3.140625 1.632812 -2.4375 2.0625 -1.78125 C 2.5 -1.125 3.0625 -0.570312 3.75 -0.125 C 4.445312 0.3125 5.304688 0.546875 6.328125 0.578125 Z M 6.328125 0.578125 "/></g></g></g><g fill="#b74153" fill-opacity="1"><g transform="translate(115.747742, 123.247008)"><g><path d="M 6.25 -0.203125 C 6.96875 -0.242188 7.539062 -0.507812 7.96875 -1 C 8.40625 -1.5 8.613281 -2.164062 8.59375 -3 L 8.4375 -6.140625 L 8.234375 -9.015625 C 8.171875 -9.984375 8.15625 -10.601562 8.1875 -10.875 C 8.1875 -11.039062 8.226562 -11.15625 8.3125 -11.21875 C 8.40625 -11.28125 8.476562 -11.316406 8.53125 -11.328125 C 8.90625 -11.347656 9.316406 -11.390625 9.765625 -11.453125 C 10.222656 -11.523438 10.613281 -11.660156 10.9375 -11.859375 C 11.675781 -12.367188 12.007812 -13.195312 11.9375 -14.34375 C 11.894531 -15 11.691406 -15.488281 11.328125 -15.8125 C 10.960938 -16.144531 10.5625 -16.351562 10.125 -16.4375 C 9.6875 -16.53125 9.335938 -16.566406 9.078125 -16.546875 L 2.28125 -16.140625 C 1.59375 -16.097656 0.9375 -15.914062 0.3125 -15.59375 C -0.632812 -15.101562 -1.078125 -14.328125 -1.015625 -13.265625 C -0.972656 -12.710938 -0.753906 -12.238281 -0.359375 -11.84375 C 0.0234375 -11.457031 0.410156 -11.203125 0.796875 -11.078125 C 1.003906 -11.015625 1.222656 -10.972656 1.453125 -10.953125 C 1.691406 -10.929688 2.054688 -10.929688 2.546875 -10.953125 C 2.679688 -10.960938 2.816406 -10.953125 2.953125 -10.921875 C 3.097656 -10.898438 3.179688 -10.8125 3.203125 -10.65625 C 3.398438 -8.875 3.59375 -6.441406 3.78125 -3.359375 L 3.828125 -2.5 C 3.828125 -2.488281 3.859375 -2.359375 3.921875 -2.109375 C 3.992188 -1.859375 4.113281 -1.582031 4.28125 -1.28125 C 4.457031 -0.976562 4.703125 -0.710938 5.015625 -0.484375 C 5.335938 -0.265625 5.75 -0.171875 6.25 -0.203125 Z M 6.25 -0.203125 "/></g></g></g><g fill="#b74153" fill-opacity="1"><g transform="translate(129.076999, 122.32602)"><g/></g></g><g fill="#b74153" fill-opacity="1"><g transform="translate(137.315395, 121.265229)"><g><path d="M 5.03125 -0.734375 C 6.445312 -1.066406 7.5625 -1.570312 8.375 -2.25 C 9.195312 -2.925781 9.742188 -3.695312 10.015625 -4.5625 C 10.285156 -5.4375 10.332031 -6.289062 10.15625 -7.125 C 9.957031 -8.09375 9.503906 -8.953125 8.796875 -9.703125 C 7.929688 -10.585938 6.789062 -11.0625 5.375 -11.125 C 4.882812 -11.144531 4.410156 -11.226562 3.953125 -11.375 C 3.503906 -11.519531 3.203125 -11.859375 3.046875 -12.390625 C 3.035156 -12.515625 3.0625 -12.632812 3.125 -12.75 C 3.195312 -12.875 3.273438 -12.941406 3.359375 -12.953125 C 3.484375 -12.960938 3.59375 -12.882812 3.6875 -12.71875 C 3.789062 -12.550781 4.003906 -12.316406 4.328125 -12.015625 C 4.765625 -11.628906 5.289062 -11.5 5.90625 -11.625 C 6.257812 -11.695312 6.570312 -11.847656 6.84375 -12.078125 C 7.125 -12.304688 7.316406 -12.59375 7.421875 -12.9375 C 7.523438 -13.289062 7.539062 -13.632812 7.46875 -13.96875 C 7.363281 -14.5 7.101562 -14.984375 6.6875 -15.421875 C 6.269531 -15.867188 5.757812 -16.207031 5.15625 -16.4375 C 4.257812 -16.75 3.335938 -16.8125 2.390625 -16.625 C 1.304688 -16.394531 0.335938 -15.851562 -0.515625 -15 C -1.378906 -14.144531 -1.867188 -13.003906 -1.984375 -11.578125 C -1.984375 -11.210938 -1.953125 -10.878906 -1.890625 -10.578125 C -1.554688 -8.972656 -0.179688 -7.84375 2.234375 -7.1875 C 2.515625 -7.101562 2.707031 -7.039062 2.8125 -7 C 3.695312 -6.625 4.175781 -6.253906 4.25 -5.890625 C 4.28125 -5.765625 4.253906 -5.65625 4.171875 -5.5625 C 4.097656 -5.476562 4 -5.421875 3.875 -5.390625 C 3.675781 -5.347656 3.484375 -5.394531 3.296875 -5.53125 C 2.296875 -6.238281 1.445312 -6.519531 0.75 -6.375 C 0.226562 -6.269531 -0.164062 -5.984375 -0.4375 -5.515625 C -0.71875 -5.054688 -0.796875 -4.515625 -0.671875 -3.890625 C -0.460938 -2.890625 0.238281 -1.976562 1.4375 -1.15625 C 2.144531 -0.738281 3.085938 -0.570312 4.265625 -0.65625 C 4.691406 -0.6875 4.945312 -0.710938 5.03125 -0.734375 Z M 5.03125 -0.734375 "/></g></g></g><g fill="#b74153" fill-opacity="1"><g transform="translate(149.366826, 118.775885)"><g><path d="M 2.9375 -0.546875 C 3.539062 -0.734375 4.066406 -1.066406 4.515625 -1.546875 C 4.960938 -2.035156 5.109375 -2.648438 4.953125 -3.390625 C 4.785156 -4.003906 4.640625 -4.515625 4.515625 -4.921875 C 4.390625 -5.335938 4.300781 -5.648438 4.25 -5.859375 C 4.207031 -6.066406 4.238281 -6.1875 4.34375 -6.21875 L 5.015625 -6.4375 C 5.128906 -6.46875 5.203125 -6.476562 5.234375 -6.46875 C 5.273438 -6.457031 5.304688 -6.429688 5.328125 -6.390625 L 5.515625 -5.75 C 5.835938 -4.664062 6.101562 -3.882812 6.3125 -3.40625 C 6.582031 -2.882812 6.976562 -2.546875 7.5 -2.390625 C 8.019531 -2.242188 8.546875 -2.25 9.078125 -2.40625 C 9.453125 -2.519531 9.800781 -2.710938 10.125 -2.984375 C 10.820312 -3.585938 11.03125 -4.34375 10.75 -5.25 C 10.132812 -7.332031 9.632812 -9.035156 9.25 -10.359375 C 8.925781 -11.503906 8.429688 -13.191406 7.765625 -15.421875 C 7.523438 -16.222656 7.210938 -16.800781 6.828125 -17.15625 C 6.148438 -17.820312 5.34375 -18.015625 4.40625 -17.734375 C 4.039062 -17.617188 3.722656 -17.460938 3.453125 -17.265625 C 3.191406 -17.078125 3.019531 -16.898438 2.9375 -16.734375 C 2.769531 -16.304688 2.726562 -15.820312 2.8125 -15.28125 C 2.894531 -14.738281 3.007812 -14.234375 3.15625 -13.765625 L 3.9375 -11.28125 C 4.164062 -10.53125 4.21875 -10.132812 4.09375 -10.09375 L 3.5 -9.90625 C 3.332031 -9.851562 3.222656 -9.84375 3.171875 -9.875 C 3.117188 -9.90625 3.070312 -9.988281 3.03125 -10.125 L 2.125 -13.328125 L 1.75 -14.484375 C 1.582031 -15.035156 1.304688 -15.441406 0.921875 -15.703125 C 0.535156 -15.960938 0.101562 -16.101562 -0.375 -16.125 C -0.863281 -16.15625 -1.316406 -16.109375 -1.734375 -15.984375 C -2.328125 -15.796875 -2.734375 -15.382812 -2.953125 -14.75 C -3.179688 -14.125 -3.175781 -13.367188 -2.9375 -12.484375 L -0.953125 -5.59375 C -0.710938 -4.820312 -0.429688 -3.894531 -0.109375 -2.8125 C 0.078125 -2.1875 0.253906 -1.707031 0.421875 -1.375 C 0.597656 -1.039062 0.851562 -0.78125 1.1875 -0.59375 C 1.695312 -0.375 2.28125 -0.359375 2.9375 -0.546875 Z M 2.9375 -0.546875 "/></g></g></g><g fill="#b74153" fill-opacity="1"><g transform="translate(162.257429, 114.871635)"><g><path d="M 5.59375 -1.796875 C 4.601562 -1.398438 3.5625 -1.375 2.46875 -1.71875 C 1.382812 -2.0625 0.367188 -2.695312 -0.578125 -3.625 C -1.523438 -4.5625 -2.273438 -5.722656 -2.828125 -7.109375 C -3.367188 -8.484375 -3.617188 -9.835938 -3.578125 -11.171875 C -3.535156 -12.503906 -3.238281 -13.671875 -2.6875 -14.671875 C -2.144531 -15.671875 -1.378906 -16.367188 -0.390625 -16.765625 C 0.597656 -17.160156 1.640625 -17.1875 2.734375 -16.84375 C 3.828125 -16.5 4.84375 -15.851562 5.78125 -14.90625 C 6.71875 -13.96875 7.457031 -12.8125 8 -11.4375 C 8.550781 -10.050781 8.8125 -8.695312 8.78125 -7.375 C 8.75 -6.050781 8.457031 -4.890625 7.90625 -3.890625 C 7.351562 -2.890625 6.582031 -2.191406 5.59375 -1.796875 Z M 3.25 -7.734375 C 3.4375 -7.804688 3.535156 -8.007812 3.546875 -8.34375 C 3.554688 -8.675781 3.476562 -9.050781 3.3125 -9.46875 C 3.15625 -9.863281 2.957031 -10.179688 2.71875 -10.421875 C 2.476562 -10.660156 2.265625 -10.742188 2.078125 -10.671875 C 1.910156 -10.597656 1.820312 -10.390625 1.8125 -10.046875 C 1.800781 -9.710938 1.875 -9.347656 2.03125 -8.953125 C 2.195312 -8.535156 2.398438 -8.207031 2.640625 -7.96875 C 2.878906 -7.738281 3.082031 -7.660156 3.25 -7.734375 Z M 3.25 -7.734375 "/></g></g></g><g fill="#b74153" fill-opacity="1"><g transform="translate(174.034791, 110.148591)"><g><path d="M 2.890625 -1.140625 C 3.472656 -1.429688 3.875 -1.921875 4.09375 -2.609375 C 4.320312 -3.296875 4.320312 -3.984375 4.09375 -4.671875 C 3.78125 -5.535156 3.566406 -6.078125 3.453125 -6.296875 C 3.367188 -6.453125 3.328125 -6.546875 3.328125 -6.578125 C 3.335938 -6.609375 3.457031 -6.675781 3.6875 -6.78125 C 4.8125 -7.519531 5.609375 -8.335938 6.078125 -9.234375 C 6.554688 -10.128906 6.773438 -11.035156 6.734375 -11.953125 C 6.703125 -12.878906 6.488281 -13.726562 6.09375 -14.5 C 5.507812 -15.664062 4.65625 -16.515625 3.53125 -17.046875 C 2.726562 -17.390625 2.035156 -17.585938 1.453125 -17.640625 C 0.878906 -17.691406 0.265625 -17.59375 -0.390625 -17.34375 C -1.046875 -17.101562 -1.921875 -16.707031 -3.015625 -16.15625 L -4.53125 -15.390625 C -4.914062 -15.203125 -5.222656 -14.820312 -5.453125 -14.25 C -5.691406 -13.6875 -5.703125 -13.101562 -5.484375 -12.5 C -5.253906 -11.976562 -4.882812 -11.207031 -4.375 -10.1875 L -3.4375 -8.328125 C -2.800781 -7.097656 -1.832031 -5.1875 -0.53125 -2.59375 L -0.46875 -2.453125 C 0.09375 -1.335938 0.976562 -0.832031 2.1875 -0.9375 C 2.4375 -0.96875 2.671875 -1.035156 2.890625 -1.140625 Z M 1.578125 -10.484375 C 1.554688 -10.472656 1.503906 -10.476562 1.421875 -10.5 L 1.375 -10.5 C 1.363281 -10.53125 1.332031 -10.59375 1.28125 -10.6875 L 0.625 -12.015625 C 0.53125 -12.222656 0.535156 -12.347656 0.640625 -12.390625 C 0.785156 -12.460938 0.988281 -12.425781 1.25 -12.28125 C 1.507812 -12.144531 1.675781 -12 1.75 -11.84375 C 1.84375 -11.664062 1.882812 -11.476562 1.875 -11.28125 C 1.863281 -11.09375 1.828125 -10.921875 1.765625 -10.765625 C 1.703125 -10.609375 1.640625 -10.515625 1.578125 -10.484375 Z M 1.578125 -10.484375 "/></g></g></g><g fill="#b74153" fill-opacity="1"><g transform="translate(185.432467, 104.391237)"><g><path d="M 2.78125 -1.390625 C 3.332031 -1.734375 3.691406 -2.253906 3.859375 -2.953125 C 4.023438 -3.660156 3.957031 -4.347656 3.65625 -5.015625 C 3.28125 -5.835938 3.023438 -6.351562 2.890625 -6.5625 C 2.796875 -6.71875 2.75 -6.804688 2.75 -6.828125 C 2.757812 -6.859375 2.875 -6.941406 3.09375 -7.078125 C 4.144531 -7.910156 4.867188 -8.796875 5.265625 -9.734375 C 5.660156 -10.671875 5.796875 -11.59375 5.671875 -12.5 C 5.554688 -13.414062 5.273438 -14.242188 4.828125 -14.984375 C 4.140625 -16.085938 3.210938 -16.851562 2.046875 -17.28125 C 1.210938 -17.5625 0.507812 -17.703125 -0.0625 -17.703125 C -0.644531 -17.703125 -1.25 -17.550781 -1.875 -17.25 C -2.507812 -16.957031 -3.347656 -16.488281 -4.390625 -15.84375 L -5.84375 -14.953125 C -6.207031 -14.722656 -6.476562 -14.3125 -6.65625 -13.71875 C -6.84375 -13.132812 -6.800781 -12.550781 -6.53125 -11.96875 C -6.257812 -11.476562 -5.828125 -10.753906 -5.234375 -9.796875 L -4.140625 -8.015625 C -3.410156 -6.828125 -2.285156 -5 -0.765625 -2.53125 L -0.671875 -2.390625 C -0.0234375 -1.335938 0.894531 -0.914062 2.09375 -1.125 C 2.34375 -1.175781 2.570312 -1.265625 2.78125 -1.390625 Z M 0.671875 -10.59375 C 0.648438 -10.582031 0.59375 -10.582031 0.5 -10.59375 L 0.46875 -10.59375 C 0.445312 -10.601562 0.410156 -10.65625 0.359375 -10.75 L -0.421875 -12.03125 C -0.523438 -12.207031 -0.523438 -12.328125 -0.421875 -12.390625 C -0.296875 -12.472656 -0.0976562 -12.457031 0.171875 -12.34375 C 0.441406 -12.226562 0.625 -12.097656 0.71875 -11.953125 C 0.820312 -11.785156 0.875 -11.601562 0.875 -11.40625 C 0.882812 -11.207031 0.863281 -11.03125 0.8125 -10.875 C 0.769531 -10.71875 0.722656 -10.625 0.671875 -10.59375 Z M 0.671875 -10.59375 "/></g></g></g><g fill="#b74153" fill-opacity="1"><g transform="translate(196.255471, 97.668015)"><g><path d="M 3.65625 -2.140625 C 4.101562 -2.472656 4.625 -2.878906 5.21875 -3.359375 C 5.65625 -3.691406 6.140625 -4.054688 6.671875 -4.453125 C 7.203125 -4.847656 7.539062 -5.347656 7.6875 -5.953125 C 7.84375 -6.566406 7.707031 -7.164062 7.28125 -7.75 C 6.851562 -8.332031 6.347656 -8.707031 5.765625 -8.875 C 5.191406 -9.039062 4.648438 -8.988281 4.140625 -8.71875 C 3.179688 -8.007812 2.425781 -7.457031 1.875 -7.0625 C 1.800781 -7.019531 1.726562 -7.023438 1.65625 -7.078125 C 1.59375 -7.128906 1.519531 -7.207031 1.4375 -7.3125 C 1.351562 -7.425781 1.304688 -7.507812 1.296875 -7.5625 C 1.285156 -7.625 1.328125 -7.691406 1.421875 -7.765625 C 1.515625 -7.835938 1.671875 -7.960938 1.890625 -8.140625 L 2.59375 -8.71875 C 2.71875 -8.820312 2.90625 -8.960938 3.15625 -9.140625 C 3.40625 -9.328125 3.625 -9.546875 3.8125 -9.796875 C 4.269531 -10.390625 4.125 -11.191406 3.375 -12.203125 C 3.039062 -12.648438 2.710938 -12.910156 2.390625 -12.984375 C 1.859375 -13.117188 1.269531 -12.945312 0.625 -12.46875 C -0.0625 -11.957031 -0.519531 -11.628906 -0.75 -11.484375 C -0.976562 -11.347656 -1.132812 -11.285156 -1.21875 -11.296875 C -1.300781 -11.316406 -1.378906 -11.382812 -1.453125 -11.5 L -1.5 -11.5625 L -1.703125 -11.8125 C -1.753906 -11.882812 -1.742188 -11.960938 -1.671875 -12.046875 C -1.460938 -12.203125 -1.164062 -12.445312 -0.78125 -12.78125 C -0.269531 -13.21875 0.1875 -13.585938 0.59375 -13.890625 C 1.0625 -14.234375 1.328125 -14.613281 1.390625 -15.03125 C 1.460938 -15.675781 1.28125 -16.296875 0.84375 -16.890625 C 0.425781 -17.453125 -0.0195312 -17.789062 -0.5 -17.90625 C -1.375 -18.144531 -2.316406 -17.894531 -3.328125 -17.15625 L -7.109375 -14.359375 C -8.054688 -13.554688 -8.304688 -12.726562 -7.859375 -11.875 C -7.753906 -11.695312 -7.375 -11.160156 -6.71875 -10.265625 C -6.363281 -9.785156 -5.992188 -9.296875 -5.609375 -8.796875 C -5.234375 -8.296875 -4.914062 -7.875 -4.65625 -7.53125 C -4.40625 -7.1875 -4.269531 -7.019531 -4.25 -7.03125 L -1.90625 -3.796875 C -1.101562 -2.710938 -0.453125 -1.945312 0.046875 -1.5 C 0.554688 -1.0625 1.070312 -0.898438 1.59375 -1.015625 C 2.125 -1.140625 2.8125 -1.515625 3.65625 -2.140625 Z M 3.65625 -2.140625 "/></g></g></g></svg>